<?xml version="1.0" encoding="UTF-8"?>
<svg id="Layer_1" xmlns="http://www.w3.org/2000/svg" version="1.1" viewBox="0 0 249.2 76.8">
  <!-- Generator: Adobe Illustrator 30.2.1, SVG Export Plug-In . SVG Version: 2.1.1 Build 1)  -->
  <defs>
    <style>
      .st0 {
        fill-rule: evenodd;
      }

      .st0, .st1 {
        fill: #fff;
      }

      .st2 {
        fill: #fe9a00;
      }
    </style>
  </defs>
  <path class="st0" d="M43.3,52.9l1.4-1.4c.2-.2.6-.2.8,0l1.4,1.4c.2.2.2.6,0,.8l-1.4,1.4c-.2.2-.6.2-.8,0l-1.4-1.4c-.2-.2-.2-.6,0-.8M17.2,31.3l5.8-5.8c.2-.2.7-.2.9,0h0c.2.2.2.7,0,.9l-5.8,5.8c-.2.2-.7.2-.9,0s-.2-.7,0-.9ZM50.4,41.5l3.5,3.5c.8.8.8,2.1,0,2.8l-14.4,14.4c-.8.8-2.1.8-2.8,0l-9.7-9.7-6.6-6.6-8.2-8.2c-.8-.8-.8-2.1,0-2.8l14.4-14.4c.8-.8,2.1-.8,2.8,0l.9.9c-.5.8-.9,1.7-1.4,2.5-.3-.2-.5-.3-.6-.2l-12.9,12.9c-.1.1,0,.5.4.9l20.3,20.3c.4.4.8.5.9.4l12.9-12.9c.1-.1,0-.5-.4-.9l-.2-.2c.3-.9.7-1.8,1.1-2.7h0Z"/>
  <path class="st0" d="M47.3,45.8h0c1.2-6.7,5.4-12.2,9.9-17.2-11.3-10.4-17-15.6-17-15.6-.7.6-1.3,1.2-2,1.9,5.7,4.3,11.4,8.7,17.1,13.1.2.2.3.5,0,.7-.5.7-1,1.4-1.5,2.1-3.2,4.5-6,9.5-6.7,15.1"/>
  <path class="st0" d="M35.1,31.1c-.3.4-.6,1-.7,1.6-.2.7-.2,1.3,0,1.8s.3.9.6,1.3c.3.4.6.7,1,1,.4.3.7.5,1,.8.3.2.6.5.8.7.2.2.2.5.2.8,0,.2-.1.3-.2.4-.1,0-.2.2-.4.2-.1,0-.3,0-.5,0-.2,0-.3,0-.5,0-.4,0-.8-.3-1.1-.5-.3-.2-.5-.5-.7-.7s-.4-.5-.5-.7-.3-.3-.5-.3c-.2,0-.5,0-.6.4s-.4.9-.6,1.7c0,.2,0,.4,0,.6s.3.5.5.7.5.5.8.7.7.5,1.2.6c0,.3-.1.5-.1.8,0,.2,0,.4,0,.6s.2.3.4.5c.2.1.4.2.7.3.2,0,.3,0,.3,0,0,0,.1-.1.2-.3l.5-1.4c1.2.1,2.1,0,2.8-.7s1.2-1.3,1.4-2.3c.2-.7.2-1.3,0-1.8s-.4-1-.7-1.3-.7-.7-1-1c-.4-.3-.8-.6-1.1-.8-.3-.3-.6-.5-.8-.8s-.2-.6-.2-.9c0-.4.3-.6.7-.8s.7-.2,1.1,0c.3,0,.5.2.6.3.1.2.2.3.2.5s0,.4,0,.6c0,.2,0,.4,0,.5,0,.1,0,.2,0,.3,0,0,.2.1.4.2.7.2,1.3.1,1.7-.1.5-.3.8-.7.9-1.4.2-.7,0-1.3-.2-1.9s-.9-1-1.7-1.4c.1-.5.1-1,0-1.3-.1-.4-.5-.6-1.1-.7-.1,0-.2,0-.3.1,0,0-.2.2-.2.4,0,.2-.1.4-.2.6,0,.2-.1.4-.2.6-.5,0-1,0-1.5.1s-1,.3-1.4.5c-.4.2-.8.6-1.1,1M25.9,36.6l-.7,8.9,11.6,11.6h0l9.7-9.7c0-1,.2-1.8.3-2.4.9-6.2,4.4-11.7,8.2-16.7-12.2-9.4-18.4-14-18.4-14-5.8,6.1-9.6,13.9-10.8,22.3h0Z"/>
  <path class="st0" d="M48.1,44.8s0,0,0,0c1.8-6.5,6.6-11.6,11.6-16.1-10.2-11.5-15.3-17.3-15.3-17.3-1,.7-1.9,1.4-2.8,2.2,5.3,4.9,10.6,9.8,16,14.6.2.2.2.6,0,.8-4.1,4.6-8.1,9.7-9.6,15.8"/>
  <g>
    <path class="st1" d="M77,49.9c-1.7,0-3.2-.3-4.6-.9s-2.6-1.4-3.7-2.5c-1-1.1-1.8-2.3-2.4-3.7-.6-1.4-.8-3-.8-4.6s.3-3.2.8-4.6c.6-1.4,1.4-2.7,2.4-3.7,1-1.1,2.3-1.9,3.7-2.5s2.9-.9,4.6-.9,3.4.3,4.8.9c1.3.6,2.5,1.4,3.6,2.5l-2.5,2.5c-.7-.7-1.5-1.3-2.5-1.7s-2.1-.6-3.4-.6-2.2.2-3.1.6c-.9.4-1.7,1-2.4,1.7s-1.2,1.6-1.6,2.6-.6,2.1-.6,3.3.2,2.3.6,3.3.9,1.9,1.6,2.6,1.5,1.3,2.4,1.7,2,.6,3.1.6,2.6-.2,3.5-.6c1-.4,1.8-1,2.5-1.7l2.5,2.5c-1,1.1-2.3,1.9-3.7,2.5-1.4.6-3,.9-4.8.9h0Z"/>
    <path class="st1" d="M94.5,49.9c-1.4,0-2.7-.4-3.8-1.1-1.1-.7-2-1.7-2.7-2.9-.7-1.2-1-2.6-1-4.1s.3-2.9,1-4.2c.7-1.2,1.6-2.2,2.7-2.9s2.4-1.1,3.8-1.1,2.2.2,3.2.8c.9.5,1.7,1.2,2.2,2.1.5.9.8,1.9.8,3v4.5c0,1.1-.3,2.1-.8,3-.5.9-1.3,1.6-2.2,2.1-.9.5-2,.8-3.2.8h0ZM95.1,46.5c1.3,0,2.4-.5,3.2-1.3s1.2-2,1.2-3.4-.2-1.8-.6-2.5c-.4-.7-.9-1.3-1.6-1.7-.7-.4-1.4-.6-2.3-.6s-1.6.2-2.3.6c-.7.4-1.2,1-1.6,1.7s-.6,1.5-.6,2.5.2,1.8.6,2.5c.4.7.9,1.3,1.6,1.7.7.4,1.4.6,2.3.6h0ZM99.3,49.6v-4.2l.6-3.8-.6-3.8v-3.8h3.6v15.6s-3.6,0-3.6,0Z"/>
    <path class="st1" d="M111.9,49.9c-.9,0-1.7-.1-2.5-.3s-1.5-.5-2.2-1-1.3-.9-1.8-1.5l2.3-2.3c.5.6,1.2,1.1,1.9,1.4.7.3,1.5.5,2.4.5s1.4-.1,1.8-.4.6-.6.6-1-.2-.8-.6-1.1c-.4-.3-.9-.5-1.5-.7s-1.3-.4-1.9-.6-1.3-.5-1.9-.8-1.1-.8-1.5-1.4c-.4-.6-.6-1.3-.6-2.3s.2-1.9.7-2.6c.5-.7,1.1-1.3,2-1.7s1.9-.6,3.1-.6,2.4.2,3.3.7,1.8,1.1,2.4,2l-2.3,2.3c-.5-.6-1-1-1.6-1.3-.6-.3-1.3-.4-2-.4s-1.3.1-1.7.3-.6.5-.6.9.2.8.6,1,.9.5,1.5.6c.6.2,1.3.4,1.9.6.7.2,1.3.5,1.9.8s1.1.8,1.5,1.4.6,1.4.6,2.3c0,1.5-.5,2.7-1.6,3.6s-2.5,1.3-4.3,1.3h0Z"/>
    <path class="st1" d="M120.8,49.6v-23.4h3.6v23.4h-3.6ZM131.5,49.6v-9c0-1-.3-1.9-1-2.6s-1.5-1-2.6-1-1.3.2-1.8.5c-.5.3-1,.7-1.3,1.3-.3.5-.5,1.2-.5,1.8l-1.4-.8c0-1.2.3-2.2.8-3.2.5-.9,1.2-1.7,2.2-2.2s2-.8,3.1-.8,2.2.3,3.1.8c.9.5,1.6,1.2,2.1,2.2.5.9.8,2,.8,3.2v9.8h-3.6,0Z"/>
    <path class="st2" d="M137.4,31.5v-5h19.9v5h-19.9ZM144.4,49.6v-22.9h5.8v22.9h-5.8Z"/>
    <path class="st2" d="M156.5,49.6v-15.9h5.7v15.9h-5.7ZM162.2,40.9l-2.5-2.2c.6-1.8,1.5-3.2,2.5-4.1,1-.9,2.4-1.4,4.1-1.4s1.4,0,2,.3,1,.5,1.4.9l-3.3,4.4c-.2-.2-.4-.3-.7-.5s-.7-.2-1.1-.2c-.7,0-1.3.2-1.7.7-.4.5-.6,1.1-.6,2h0Z"/>
    <path class="st2" d="M176.9,49.9c-1.5,0-2.8-.4-3.9-1.1-1.1-.7-2.1-1.7-2.7-3s-1-2.7-1-4.2.3-3,1-4.3,1.6-2.2,2.7-3,2.5-1.1,3.9-1.1,1.9.2,2.7.5c.8.4,1.5.9,2,1.5.5.7.9,1.4,1,2.2v8c-.1.8-.4,1.6-1,2.2-.5.6-1.2,1.1-2,1.5-.8.4-1.7.5-2.7.5h0ZM178.1,44.9c.9,0,1.7-.3,2.3-.9.6-.6.9-1.4.9-2.3s-.1-1.2-.4-1.7-.6-.9-1.1-1.1c-.5-.3-1-.4-1.6-.4s-1.1.1-1.6.4c-.5.3-.8.7-1.1,1.2-.3.5-.4,1-.4,1.6s.1,1.2.4,1.7.6.9,1.1,1.2c.5.3,1,.4,1.6.4h0ZM181,49.6v-4.3l.8-3.9-.8-3.8v-3.9h5.6v15.9h-5.6Z"/>
    <path class="st2" d="M197.8,50c-1.7,0-3.2-.4-4.6-1.1-1.4-.7-2.4-1.7-3.2-3-.8-1.3-1.2-2.7-1.2-4.3s.4-3,1.2-4.3,1.9-2.2,3.2-3c1.4-.7,2.9-1.1,4.6-1.1s2.4.2,3.4.6,1.9,1,2.8,1.9l-3.6,3.6c-.3-.3-.7-.6-1.1-.7s-.9-.2-1.5-.2-1.2.1-1.6.4c-.5.3-.9.7-1.2,1.1-.3.5-.4,1-.4,1.7s.1,1.2.4,1.7c.3.5.7.9,1.2,1.2.5.3,1,.4,1.6.4s1.1,0,1.6-.3c.4-.2.8-.5,1.1-.8l3.6,3.6c-.9.9-1.9,1.5-2.9,2s-2.2.7-3.5.7h0Z"/>
    <path class="st2" d="M206.2,49.6v-23.7h5.7v23.7h-5.7ZM216.4,49.6l-5-8.3,5-7.6h6.2l-6.2,8.6.2-2.1,6.4,9.4h-6.5Z"/>
    <path class="st2" d="M224,49.6v-15.9h5.7v15.9h-5.7ZM229.7,40.9l-2.5-2.2c.6-1.8,1.5-3.2,2.5-4.1,1-.9,2.4-1.4,4.1-1.4s1.4,0,2,.3,1,.5,1.4.9l-3.3,4.4c-.2-.2-.4-.3-.7-.5s-.7-.2-1.1-.2c-.7,0-1.3.2-1.7.7-.4.5-.6,1.1-.6,2h0Z"/>
  </g>
</svg>